# xmcd
#
# Track frame offsets:
#	150
#	14340
#	29475
#	46795
#	60445
#	89055
#	104875
#	122572
#	135260
#	148005
#	162027
#
# Disc length: 2347 seconds
#
# Revision: 0
# Processed by: cddbd v1.4PL0 Copyright (c) Steve Scherf et al.
# Submitted via: dBpowerAMP V4.0
#
DISCID=9109290b
DTITLE=Eddie Kirkland - All Around The World
DYEAR=1900
DGENRE=Blues
TTITLE0=Shake It Up
TTITLE1=All I've Got To Offer
TTITLE2=Live With It
TTITLE3=40 Days and 40 Nights
TTITLE4=Pick Up The Pieces
TTITLE5=All Around The World
TTITLE6=Love Don't Love Nobody
TTITLE7=Country Boy
TTITLE8=There's Gonna Be Some Blues
TTITLE9=Big City Behind The Sun
TTITLE10=Someone To Stand By Me
EXTD=With John Lee Hooker
EXTT0=
EXTT1=
EXTT2=
EXTT3=
EXTT4=
EXTT5=
EXTT6=
EXTT7=
EXTT8=
EXTT9=
EXTT10=
PLAYORDER=
